<svg width="180px" viewBox="0 0 224 56" fill="none" xmlns="http://www.w3.org/2000/svg">
<path d="M6.82246 46.9731C7.41501 47.7871 7.67091 48.5807 9.49489 47.9324L44.6268 32.3691C44.7455 31.4856 45.2509 31.1328 45.0844 30.2201L42.3465 26.422C41.6188 25.8556 41.8852 24.7203 39.6869 25.5392L4.78805 41.2688C3.87336 41.6792 4.00368 42.4182 4.59623 43.2322L6.82246 46.9731Z" fill="#0143A0"></path>
<path d="M22.2582 54.2969C22.8508 55.1109 23.8796 55.2082 24.5929 54.4335L44.6999 32.5961C45.3686 31.8698 45.4544 30.562 44.8619 29.748L42.0947 25.9028C41.5022 25.0888 40.4734 24.9915 39.7601 25.7662L19.6531 47.6036C18.9843 48.3299 18.8985 49.6377 19.4911 50.4517L22.2582 54.2969Z" fill="#0652BD"></path>
<path d="M4.83665 29.2214C5.4292 30.0354 6.27784 30.8674 7.19253 30.4571L42.52 15.1186C42.3046 14.0655 43.0803 13.9093 43.0403 12.9401L40.3137 9.06098C39.4306 8.86516 39.8347 7.28409 37.5802 8.28872L2.25269 23.6272C2.27804 24.2427 1.98118 24.7462 2.57373 25.5602L4.83665 29.2214Z" fill="#0143A0"></path>
<path d="M7.13786 47.5046C7.73041 48.3186 8.8057 48.414 9.52287 47.7323L42.6041 15.2051C43.3212 14.5234 43.4089 13.2621 42.8164 12.4481L40.0492 8.60292C39.4567 7.78891 38.3814 7.69353 37.6642 8.37525L4.58303 40.9024C3.86586 41.5842 3.77816 42.8454 4.37071 43.6594L7.13786 47.5046Z" fill="#0652BD"></path>
<path d="M5.05328 29.9732C5.64583 30.7872 6.67462 30.8845 7.38794 30.1098L27.4949 8.27242C28.1637 7.54613 28.2495 6.23833 27.6569 5.42433L24.8898 1.57913C24.2972 0.76513 23.2684 0.667831 22.5551 1.44255L2.40161 23.2818C1.73286 24.0081 1.64707 25.3159 2.23962 26.1299L5.05328 29.9732Z" fill="#0652BD"></path>
<path fill-rule="evenodd" clip-rule="evenodd" d="M72.7729 30.7505C72.7729 28.7814 73.1422 27.0584 73.8191 25.4585C74.4959 23.8586 75.4805 22.5048 76.6497 21.3972C77.8189 20.2895 79.2342 19.428 80.8957 18.8127C82.5571 18.1973 84.2801 17.8896 86.1262 17.8896C87.9723 17.8896 89.6953 18.1973 91.3568 18.8127C93.0182 19.428 94.372 20.2895 95.6027 21.3972C96.7719 22.5048 97.7565 23.8586 98.4334 25.4585C99.1103 27.0584 99.4795 28.7814 99.4795 30.7505C99.4795 32.7196 99.1103 34.4426 98.4334 36.0425C97.7565 37.6424 96.7719 38.9962 95.6027 40.1654C94.4335 41.3345 93.0182 42.196 91.3568 42.8729C89.6953 43.5498 87.9723 43.8575 86.1262 43.8575C84.2801 43.8575 82.5571 43.5498 80.8957 42.8729C79.2342 42.2575 77.8804 41.3345 76.6497 40.1654C75.4805 38.9962 74.4959 37.6424 73.8191 36.0425C73.1422 34.4426 72.7729 32.6581 72.7729 30.7505ZM79.0496 30.7505C79.0496 31.6735 79.1727 32.6581 79.4803 33.5811C79.788 34.5041 80.2188 35.3656 80.7726 36.104C81.3264 36.8425 82.0648 37.4578 82.9879 37.9501C83.8494 38.4424 84.957 38.6885 86.1262 38.6885C87.3569 38.6885 88.403 38.4424 89.2645 37.9501C90.126 37.4578 90.8645 36.8425 91.4798 36.104C92.0336 35.3656 92.4644 34.5041 92.7721 33.5811C93.0798 32.6581 93.2028 31.6735 93.2028 30.7505C93.2028 29.8275 93.0798 28.8429 92.7721 27.9199C92.4644 26.9968 92.0336 26.1354 91.4798 25.3969C90.926 24.6585 90.1876 24.0432 89.2645 23.6124C88.3415 23.1817 87.2954 22.9355 86.1262 22.9355C84.8955 22.9355 83.8494 23.1817 82.9879 23.6124C82.1264 24.0432 81.388 24.6585 80.7726 25.3969C80.2188 26.1354 79.788 26.9968 79.4803 27.9199C79.1727 28.8429 79.0496 29.7659 79.0496 30.7505Z" fill="#000"></path>
<path fill-rule="evenodd" clip-rule="evenodd" d="M118.155 23.8594C117.603 23.8594 117.155 23.4117 117.155 22.8594V19.8594C117.155 19.3071 117.603 18.8594 118.155 18.8594H121.362C121.418 18.8594 121.462 18.8146 121.462 18.7594L121.463 12.8592C121.463 12.307 121.911 11.8594 122.463 11.8594H126.494C127.046 11.8594 127.494 12.3072 127.494 12.8595L127.493 18.7594C127.493 18.8146 127.538 18.8594 127.593 18.8594H132.585C133.137 18.8594 133.585 19.3071 133.585 19.8594V22.8594C133.585 23.4117 133.137 23.8594 132.585 23.8594H127.593C127.538 23.8594 127.493 23.9042 127.493 23.9594L127.494 35.1209C127.494 36.2285 127.678 37.09 128.109 37.8285C128.478 38.5669 129.401 38.8746 130.755 38.8746C131.186 38.8746 131.617 38.813 132.109 38.7515C132.737 38.673 133.429 39.0993 133.453 39.7317L133.557 42.4322C133.574 42.8765 133.297 43.2842 132.869 43.4038C132.499 43.507 132.09 43.6015 131.617 43.6744C130.878 43.7974 130.14 43.859 129.463 43.859C127.801 43.859 126.509 43.6128 125.463 43.1821C124.417 42.7513 123.617 42.0744 123.063 41.2745C122.448 40.4745 122.079 39.5515 121.833 38.5054C121.586 37.4592 121.525 36.3516 121.525 35.1824L121.524 23.9594C121.524 23.9042 121.479 23.8594 121.424 23.8594H118.155Z" fill="#000"></path>
<path d="M140.701 18.8593H136.855C136.303 18.8593 135.855 19.307 135.855 19.8593V42.7975C135.855 43.3498 136.303 43.7975 136.855 43.7975H140.947C141.499 43.7975 141.947 43.3498 141.947 42.7975V30.043C141.947 29.6122 142.009 28.9968 142.193 28.2584C142.378 27.4585 142.685 26.7816 143.178 26.0431C143.608 25.3047 144.285 24.6893 145.147 24.1971C146.008 23.7048 147.116 23.4586 148.531 23.4586C148.839 23.4586 149.085 23.4586 149.393 23.5202C149.927 23.5202 150.439 23.1731 150.439 22.639V18.7325C150.439 18.2914 150.142 17.8589 149.701 17.8589H148.962C147.301 17.8589 145.885 18.3512 144.655 19.2127C143.595 19.9933 142.586 21.0266 141.903 22.2667C141.851 22.3599 141.701 22.3243 141.701 22.2178V19.8593C141.701 19.307 141.253 18.8593 140.701 18.8593Z" fill="#000"></path>
<path d="M192.361 23.6849C192.929 23.9688 193.394 24.273 193.781 24.6094C194.224 24.9947 194.9 25.0805 195.344 24.6956L197.984 22.4046C198.39 22.0522 198.45 21.4368 198.065 21.0606C197.162 20.1755 196.031 19.4783 194.704 18.9377C193.039 18.2596 191.251 17.8896 189.463 17.8896C187.675 17.8896 186.011 18.1979 184.408 18.8144C182.805 19.4309 181.387 20.2941 180.216 21.4038C179.044 22.5135 178.058 23.8699 177.38 25.4728C176.701 27.0758 176.332 28.8637 176.332 30.8365C176.332 32.871 176.701 34.7206 177.38 36.3235C178.058 37.9265 178.983 39.2828 180.216 40.3925C181.449 41.5023 182.867 42.3654 184.47 42.9203C186.073 43.4751 187.799 43.7834 189.587 43.7834C191.436 43.7834 193.162 43.4751 194.704 42.8586C195.918 42.3728 196.98 41.7721 197.888 40.9961C198.298 40.646 198.288 40.0267 197.91 39.6424L195.582 37.2769C195.152 36.84 194.432 36.8949 193.952 37.2756C193.521 37.6171 193.024 37.8957 192.484 38.1114C191.56 38.4813 190.573 38.6663 189.648 38.6663C188.539 38.6663 187.491 38.4197 186.627 37.9881C185.764 37.5566 185.024 36.94 184.47 36.2002C183.915 35.4604 183.483 34.5973 183.175 33.6725C182.867 32.7477 182.743 31.7613 182.743 30.8365C182.743 29.9117 182.928 28.9253 183.175 28.0005C183.422 27.0758 183.853 26.2126 184.408 25.4728C184.963 24.733 185.641 24.1165 186.504 23.6849C187.367 23.2534 188.354 23.0067 189.463 23.0067C190.45 23.0067 191.436 23.2534 192.361 23.6849Z" fill="#000"></path>
<path d="M204.875 11.8594H200.783C200.231 11.8594 199.783 12.3071 199.783 12.8594V42.859C199.783 43.4112 200.231 43.859 200.783 43.859H204.875C205.428 43.859 205.875 43.4112 205.875 42.859V31.5952C205.875 31.5002 205.995 31.4587 206.054 31.5335L215.421 43.4761C215.61 43.7178 215.9 43.859 216.208 43.859H221.699C222.548 43.859 223.011 42.8667 222.465 42.216L212.583 30.4442L222.055 20.551C222.664 19.915 222.214 18.8594 221.333 18.8594H216.237C215.958 18.8594 215.691 18.9765 215.501 19.1823L206.049 29.4556C205.987 29.5226 205.875 29.479 205.875 29.3878V12.8594C205.875 12.3071 205.428 11.8594 204.875 11.8594Z" fill="#000"></path>
<path d="M100.025 23.8594H103.602C103.657 23.8594 103.702 23.9042 103.702 23.9594V42.8594C103.702 43.4117 104.15 43.8594 104.702 43.8594H108.794C109.346 43.8594 109.794 43.4117 109.794 42.8594V23.9594C109.794 23.9042 109.839 23.8594 109.894 23.8594H114.455C115.008 23.8594 115.455 23.4117 115.455 22.8594V19.8594C115.455 19.3071 115.008 18.8594 114.455 18.8594H109.894C109.839 18.8594 109.794 18.8146 109.794 18.7594V15.6281V15.6281C109.794 15.0127 109.794 14.3359 109.917 13.7205C110.04 13.1052 110.225 12.4898 110.533 11.936C110.779 11.3822 111.209 10.9514 111.763 10.5822C112.317 10.2745 113.056 10.0899 113.917 10.0899C114.348 10.0899 114.779 10.1514 115.148 10.213C115.72 10.2948 116.301 9.90307 116.349 9.32655L116.624 5.98168C116.661 5.53607 116.397 5.1143 115.958 5.02914C115.719 4.98269 115.487 4.9518 115.271 4.92091C114.779 4.85938 114.225 4.85938 113.548 4.85938C111.64 4.85938 110.04 5.16706 108.81 5.78241C107.579 6.33623 106.533 7.13621 105.794 8.1823C104.994 9.2284 104.441 10.3976 104.133 11.7514C103.825 13.0436 103.641 14.459 103.641 15.9358V18.7594C103.641 18.8146 103.596 18.8594 103.541 18.8594H100.025C99.4731 18.8594 99.0254 19.3071 99.0254 19.8594V22.8594C99.0254 23.4117 99.4731 23.8594 100.025 23.8594Z" fill="#000"></path>
<path d="M65.3715 23.3047C65.9362 23.6059 66.4318 23.9531 66.8583 24.3464C67.2884 24.743 67.9618 24.8174 68.3991 24.4288L70.7706 22.3208C71.1615 21.9733 71.2233 21.3778 70.8583 21.0032C69.9497 20.0706 68.8073 19.3718 67.4637 18.8742C65.8022 18.2588 64.0792 17.9512 62.2947 17.9512C61.064 17.9512 59.8948 18.0742 58.7256 18.3819C57.5564 18.6896 56.5103 19.1819 55.5873 19.7972C54.6643 20.4126 53.9258 21.2125 53.372 22.1971C52.8182 23.1817 52.5105 24.3508 52.5105 25.7046C52.5105 26.8738 52.6951 27.7968 53.1259 28.5967C53.5566 29.3967 54.1104 30.0121 54.7873 30.5659C55.4642 31.1197 56.2642 31.5504 57.1257 31.8581C58.0487 32.1658 58.9102 32.4735 59.8333 32.6581C61.6793 33.1503 63.0947 33.5811 64.0177 34.0118C64.9407 34.5041 65.433 35.181 65.433 36.2271C65.433 36.7194 65.31 37.2117 65.0638 37.5809C64.8177 38.0116 64.51 38.2577 64.1408 38.5039C63.71 38.75 63.2793 38.8731 62.8485 38.9962C62.4178 39.0577 61.9255 39.1192 61.4947 39.1192C60.141 39.1192 58.9718 38.8116 57.8641 38.2578C57.1209 37.8449 56.4885 37.3766 55.9484 36.8529C55.527 36.4444 54.8499 36.388 54.422 36.7896L51.9343 39.1242C51.5367 39.4972 51.5084 40.1241 51.9129 40.4896C52.9721 41.4462 54.2599 42.1996 55.7104 42.7498C57.4949 43.4267 59.341 43.7959 61.2486 43.7959C62.6024 43.7959 63.8946 43.6728 65.1253 43.3652C66.3561 43.0575 67.4637 42.5652 68.3867 41.9499C69.3098 41.3345 70.0482 40.473 70.602 39.4269C71.1559 38.3808 71.4635 37.0886 71.4635 35.6117C71.4635 34.4426 71.2174 33.458 70.7251 32.5965C70.2944 31.735 69.6175 31.0581 68.879 30.5043C68.1406 29.9505 67.2791 29.5198 66.3561 29.1506L66.356 29.1505C65.433 28.8429 64.51 28.5352 63.587 28.3506C61.8639 27.9814 60.5717 27.5506 59.6487 27.1814C58.7256 26.7507 58.2949 26.0738 58.2949 25.1508C58.2949 24.2278 58.7256 23.5509 59.5256 23.1201C60.3256 22.6894 61.2486 22.5048 62.2332 22.5048C63.4023 22.5048 64.4485 22.7509 65.3715 23.3047Z" fill="#000"></path>
<path d="M169.391 43.8036H173.5C174.052 43.8036 174.5 43.3559 174.5 42.8036V18.8896C174.5 18.3374 174.052 17.8896 173.5 17.8896H169.408C168.855 17.8896 168.408 18.3374 168.408 18.8896V32.0429C168.408 32.8428 168.285 33.6428 168.038 34.4427C167.792 35.2427 167.423 35.9811 166.992 36.535C166.562 37.0888 165.946 37.6426 165.208 38.0118C164.469 38.4426 163.608 38.6272 162.685 38.6272C161.7 38.6272 160.9 38.4426 160.285 38.0118C159.67 37.6426 159.239 37.0888 158.87 36.4734C158.5 35.8581 158.316 35.1812 158.193 34.3812C158.131 33.6428 158.07 32.9044 158.07 32.1659V18.8896C158.07 18.3374 157.622 17.8896 157.07 17.8896H152.978C152.425 17.8896 151.978 18.3374 151.978 18.8896V33.8889C151.978 35.1812 152.101 36.4119 152.47 37.5811C152.778 38.7502 153.331 39.7964 154.07 40.7194C154.808 41.6424 155.731 42.3809 156.9 42.9347C158.07 43.4885 159.423 43.7962 161.023 43.7962C162.869 43.7962 164.469 43.3039 165.823 42.3809C167.02 41.5107 167.674 40.5924 168.193 39.5411C168.24 39.4445 168.391 39.4776 168.391 39.5854V42.8036C168.391 43.3559 168.839 43.8036 169.391 43.8036Z" fill="#000"></path>
</svg>