<?xml version="1.0" encoding="UTF-8" standalone="no" ?>
<!DOCTYPE svg PUBLIC "-//W3C//DTD SVG 1.1//EN" "http://www.w3.org/Graphics/SVG/1.1/DTD/svg11.dtd">
<svg xmlns="http://www.w3.org/2000/svg" xmlns:xlink="http://www.w3.org/1999/xlink" version="1.1" width="1080" height="1080" viewBox="0 0 1080 1080" xml:space="preserve">
<defs>
</defs>
<g transform="matrix(1 0 0 1 540 540)" id="a437c606-ba92-4280-8d12-063c55b57a09"  >
<rect style="stroke: none; stroke-width: 1; stroke-dasharray: none; stroke-linecap: butt; stroke-dashoffset: 0; stroke-linejoin: miter; stroke-miterlimit: 4; fill: rgb(255,255,255); fill-rule: nonzero; opacity: 1; visibility: hidden;" vector-effect="non-scaling-stroke"  x="-540" y="-540" rx="0" ry="0" width="1080" height="1080" />
</g>
<g transform="matrix(Infinity NaN NaN Infinity 0 0)" id="a139cac9-6d14-46fb-9615-c24aec0783a8"  >
</g>
<g transform="matrix(18.74 0 0 18.74 2196.96 540)"  >
<g style=""   >
		<g transform="matrix(1 0 0 1 -87.37 8.71)"  >
<path style="stroke: none; stroke-width: 1; stroke-dasharray: none; stroke-linecap: butt; stroke-dashoffset: 0; stroke-linejoin: miter; stroke-miterlimit: 4; fill: rgb(1,67,160); fill-rule: nonzero; opacity: 1;" vector-effect="non-scaling-stroke"  transform=" translate(-24.62, -36.71)" d="M 6.82246 46.9731 C 7.41501 47.7871 7.67091 48.5807 9.49489 47.9324 L 44.6268 32.3691 C 44.7455 31.4856 45.2509 31.1328 45.0844 30.2201 L 42.3465 26.422 C 41.6188 25.8556 41.8852 24.7203 39.6869 25.5392 L 4.78805 41.2688 C 3.87336 41.6792 4.00368 42.4182 4.59623 43.2322 L 6.82246 46.9731 Z" stroke-linecap="round" />
</g>
		<g transform="matrix(1 0 0 1 -79.83 12.1)"  >
<path style="stroke: none; stroke-width: 1; stroke-dasharray: none; stroke-linecap: butt; stroke-dashoffset: 0; stroke-linejoin: miter; stroke-miterlimit: 4; fill: rgb(6,82,189); fill-rule: nonzero; opacity: 1;" vector-effect="non-scaling-stroke"  transform=" translate(-32.18, -40.1)" d="M 22.2582 54.2969 C 22.8508 55.1109 23.8796 55.2082 24.5929 54.4335 L 44.6999 32.5961 C 45.3686 31.8698 45.4544 30.562 44.8619 29.748 L 42.0947 25.9028 C 41.5022 25.0888 40.4734 24.9915 39.7601 25.7662 L 19.6531 47.6036 C 18.9843 48.3299 18.8985 49.6377 19.4911 50.4517 L 22.2582 54.2969 Z" stroke-linecap="round" />
</g>
		<g transform="matrix(1 0 0 1 -89.38 -8.74)"  >
<path style="stroke: none; stroke-width: 1; stroke-dasharray: none; stroke-linecap: butt; stroke-dashoffset: 0; stroke-linejoin: miter; stroke-miterlimit: 4; fill: rgb(1,67,160); fill-rule: nonzero; opacity: 1;" vector-effect="non-scaling-stroke"  transform=" translate(-22.62, -19.26)" d="M 4.83665 29.2214 C 5.4292 30.0354 6.27784 30.8674 7.19253 30.4571 L 42.52 15.1186 C 42.3046 14.0655 43.0803 13.9093 43.0403 12.9401 L 40.3137 9.06098 C 39.4306 8.86516 39.8347 7.28409 37.5802 8.28872 L 2.25269 23.6272 C 2.27804 24.2427 1.98118 24.7462 2.57373 25.5602 L 4.83665 29.2214 Z" stroke-linecap="round" />
</g>
		<g transform="matrix(1 0 0 1 -88.41 0.05)"  >
<path style="stroke: none; stroke-width: 1; stroke-dasharray: none; stroke-linecap: butt; stroke-dashoffset: 0; stroke-linejoin: miter; stroke-miterlimit: 4; fill: rgb(6,82,189); fill-rule: nonzero; opacity: 1;" vector-effect="non-scaling-stroke"  transform=" translate(-23.59, -28.05)" d="M 7.13786 47.5046 C 7.73041 48.3186 8.8057 48.414 9.52287 47.7323 L 42.6041 15.2051 C 43.3212 14.5234 43.4089 13.2621 42.8164 12.4481 L 40.0492 8.60292 C 39.4567 7.78891 38.3814 7.69353 37.6642 8.37525 L 4.58303 40.9024 C 3.86586 41.5842 3.77816 42.8454 4.37071 43.6594 L 7.13786 47.5046 Z" stroke-linecap="round" />
</g>
		<g transform="matrix(1 0 0 1 -97.05 -12.23)"  >
<path style="stroke: none; stroke-width: 1; stroke-dasharray: none; stroke-linecap: butt; stroke-dashoffset: 0; stroke-linejoin: miter; stroke-miterlimit: 4; fill: rgb(6,82,189); fill-rule: nonzero; opacity: 1;" vector-effect="non-scaling-stroke"  transform=" translate(-14.95, -15.78)" d="M 5.05328 29.9732 C 5.64583 30.7872 6.67462 30.8845 7.38794 30.1098 L 27.4949 8.27242 C 28.1637 7.54613 28.2495 6.23833 27.6569 5.42433 L 24.8898 1.57913 C 24.2972 0.76513 23.2684 0.667831 22.5551 1.44255 L 2.40161 23.2818 C 1.73286 24.0081 1.64707 25.3159 2.23962 26.1299 L 5.05328 29.9732 Z" stroke-linecap="round" />
</g>
</g>
</g>
</svg>